<mxfile host="app.diagrams.net" modified="2024-05-28T12:32:03.311Z" agent="Mozilla/5.0 (Windows NT 10.0; Win64; x64) AppleWebKit/537.36 (KHTML, like Gecko) Chrome/121.0.0.0 Safari/537.36" version="24.4.9" etag="iXdo7S8MQFrq3s9svngq" type="device">
  <diagram id="nIhSwTF-T6NaodJJTtAh" name="Página-1">
    <mxGraphModel dx="1434" dy="772" grid="1" gridSize="10" guides="1" tooltips="1" connect="1" arrows="1" fold="1" page="1" pageScale="1" pageWidth="827" pageHeight="1169" math="0" shadow="0">
      <root>
        <mxCell id="0" />
        <mxCell id="1" parent="0" />
        <mxCell id="j0Kf0jTLlzzISbiH4wGe-1" value="" style="shape=ext;double=1;rounded=1;whiteSpace=wrap;html=1;rotation=90;" vertex="1" parent="1">
          <mxGeometry x="114" y="490" width="600" height="290" as="geometry" />
        </mxCell>
        <mxCell id="j0Kf0jTLlzzISbiH4wGe-3" value="" style="ellipse;shape=doubleEllipse;whiteSpace=wrap;html=1;" vertex="1" parent="1">
          <mxGeometry x="308" y="420" width="211" height="80" as="geometry" />
        </mxCell>
        <mxCell id="j0Kf0jTLlzzISbiH4wGe-4" value="Matéria-prima" style="shape=ext;double=1;rounded=0;whiteSpace=wrap;html=1;" vertex="1" parent="1">
          <mxGeometry x="323" y="630" width="181" height="30" as="geometry" />
        </mxCell>
        <mxCell id="j0Kf0jTLlzzISbiH4wGe-5" value="Fornecedor" style="shape=ext;double=1;rounded=0;whiteSpace=wrap;html=1;" vertex="1" parent="1">
          <mxGeometry x="323.5" y="570" width="181" height="30" as="geometry" />
        </mxCell>
        <mxCell id="j0Kf0jTLlzzISbiH4wGe-6" value="Cliente" style="shape=ext;double=1;rounded=0;whiteSpace=wrap;html=1;" vertex="1" parent="1">
          <mxGeometry x="323" y="690" width="181" height="30" as="geometry" />
        </mxCell>
        <mxCell id="j0Kf0jTLlzzISbiH4wGe-7" value="Pedido" style="shape=ext;double=1;rounded=0;whiteSpace=wrap;html=1;" vertex="1" parent="1">
          <mxGeometry x="323" y="750" width="181" height="30" as="geometry" />
        </mxCell>
        <mxCell id="j0Kf0jTLlzzISbiH4wGe-8" value="Pedido" style="shape=ext;double=1;rounded=0;whiteSpace=wrap;html=1;" vertex="1" parent="1">
          <mxGeometry x="323.5" y="810" width="181" height="30" as="geometry" />
        </mxCell>
      </root>
    </mxGraphModel>
  </diagram>
</mxfile>
